<?xml version="1.0" encoding="utf-8" ?><svg xmlns="http://www.w3.org/2000/svg" xmlns:xlink="http://www.w3.org/1999/xlink" width="1254" height="1254" viewBox="0 0 1254 1254"><rect width="1254" height="1254" rx="170" fill="#0E2849"/><g transform="translate(627 627) scale(1.2) translate(-627 -627)"><path fill="#FEFEFD" d="M762.943 279.721C765.923 270.132 770.487 267.461 780.17 267.399C818.897 267.146 857.652 267.348 896.383 267.297C907.803 267.282 913.867 267.519 920.04 278.478L974.758 278.478C1007.61 278.439 1031.91 275.151 1057.44 300.873C1058.54 301.98 1062.34 305.791 1063.09 306.832C1067.65 310.786 1073.26 317.098 1076.66 322.109C1098.56 353.178 1100.55 370.205 1100.54 406.75L1100.49 449.816L1100.5 608.561L1100.49 659.786C1100.49 667.914 1100.78 678.598 1100.39 686.548C1101.35 712.117 1100.44 742.153 1100.5 768.162L1100.53 849.322C1100.54 888.304 1106.21 923.834 1076.13 953.988C1065.75 964.432 1052.65 971.757 1038.32 975.132C1023.75 978.55 987.006 977.287 969.799 977.282L824.38 977.326L775.249 977.295C749.384 977.29 726.873 977.069 701.435 982.971C675.044 989.094 646.561 1001.6 627.869 1021.69C586.332 980.788 536.315 977.306 481.972 977.29L433.275 977.295L286.691 977.286C266.839 977.302 228.816 979.273 211.49 973.393C176.198 961.416 156.38 930.788 156.03 894.08C156.011 891.775 156.01 889.471 156.027 887.167C155.924 853.601 155.369 817.291 156.102 783.87C155.589 749.881 156.026 714.827 156.054 680.756C155.998 641.84 155.414 601.127 156.075 562.332C155.143 503.771 156.603 444.659 156.114 386.056C155.897 360.028 171.981 326.789 190.895 309.177C222.277 273.316 244.277 278.438 288.1 278.466L365.087 278.509L437.124 278.501C452.885 278.504 468.815 278.201 484.632 279.096C528.105 281.557 573.053 293.964 606.565 322.902C614.336 329.612 622.935 339.176 627.382 348.462L628.461 348.893L629.057 348.435C631.713 342.982 635.047 337.887 638.982 333.272C669.121 297.88 718.084 283.411 762.943 279.721Z"/><path fill="#FEFEFD" d="M190.895 309.177C222.277 273.316 244.277 278.438 288.1 278.466L365.087 278.509L437.124 278.501C452.885 278.504 468.815 278.201 484.632 279.096C528.105 281.557 573.053 293.964 606.565 322.902C614.336 329.612 622.935 339.176 627.382 348.462L628.461 348.893L629.057 348.435C631.524 353.83 630.481 408.001 630.478 417.59L630.532 534.097L630.528 882.777C630.526 892.922 629.458 981.038 630.776 984.928C629.629 986.369 629.714 986.434 628.142 987.323C626.011 986.799 626.225 986.388 624.393 984.485C576.042 937.78 504.808 944.697 443.12 944.705L299.904 944.705C283.46 944.716 246.889 945.895 233.041 942.536C220.636 939.43 209.308 933.014 200.265 923.974C178.502 902.312 179.407 880.209 179.399 852.328C174.17 861.504 164.849 883.739 156.027 887.167C155.924 853.601 155.369 817.291 156.102 783.87C155.589 749.881 156.026 714.827 156.054 680.756C155.998 641.84 155.414 601.127 156.075 562.332C155.143 503.771 156.603 444.659 156.114 386.056C155.897 360.028 171.981 326.789 190.895 309.177Z"/><path fill="#E3DEDA" d="M156.075 562.332C155.143 503.771 156.603 444.659 156.114 386.056C155.897 360.028 171.981 326.789 190.895 309.177C188.392 317.977 182.363 325.235 180.838 335.306C178.221 352.579 179.794 369.859 179.421 387.272C178.843 423.535 180.191 460.984 179.357 497.115C171.999 501.832 172.371 509.46 169.747 516.682C165.448 528.516 162.231 552.039 156.075 562.332Z"/><path fill="#E3DEDA" d="M629.057 348.435C631.524 353.83 630.481 408.001 630.478 417.59L630.532 534.097L630.528 882.777C630.526 892.922 629.458 981.038 630.776 984.928C629.629 986.369 629.714 986.434 628.142 987.323C626.011 986.799 626.225 986.388 624.393 984.485C624.876 980.76 624.621 972.38 624.613 968.358L624.592 938.05L624.591 834.604L624.57 478.035L624.573 389.903L624.501 363.761C624.499 360.028 624.507 355.811 624.676 352.048C624.762 350.132 625.896 349.691 627.382 348.462L628.461 348.893L629.057 348.435Z"/><path fill="#A3A2A1" d="M156.075 562.332C162.231 552.039 165.448 528.516 169.747 516.682C172.371 509.46 171.999 501.832 179.357 497.115L179.38 677.025C171.785 680.605 164.466 684.394 156.054 680.756C155.998 641.84 155.414 601.127 156.075 562.332Z"/><path fill="#D2B090" d="M156.102 783.87C161.155 777.557 174.562 744.907 179.345 743.398L179.399 852.328C174.17 861.504 164.849 883.739 156.027 887.167C155.924 853.601 155.369 817.291 156.102 783.87Z"/><path fill="#E3DEDA" d="M156.054 680.756C164.466 684.394 171.785 680.605 179.38 677.025C179.387 698.897 179.717 721.597 179.345 743.398C174.562 744.907 161.155 777.557 156.102 783.87C155.589 749.881 156.026 714.827 156.054 680.756Z"/><path fill="#E3DEDA" d="M257.682 376.177C288.214 374.885 320.304 375.991 350.989 376.005C381.983 376.019 413.29 374.963 444.238 375.986C446.484 376.06 449.139 376.059 451.254 376.872C453.712 377.816 456.204 379.813 457.156 382.323C458.746 386.518 458.666 537.668 458.072 553.443C457.971 556.119 457.814 559.324 456.456 561.685C454.739 564.669 451.982 566.043 448.766 566.885C417.605 567.879 380.482 566.976 348.856 566.976L291.776 566.975C287.465 566.975 282.32 567.208 278.072 566.983C270.857 566.601 249.325 569.736 248.886 558.494C248.172 540.225 248.519 521.644 248.517 503.374L248.519 428.744C248.522 415.187 248.439 401.632 248.667 388.079C248.781 381.359 251.025 377.935 257.682 376.177Z"/><path fill="#E3DEDA" d="M257.879 630.869C275.032 630.275 295.611 630.765 312.946 630.767L418.524 630.785L505.301 630.742C520.017 630.732 534.877 630.645 549.595 630.815C552.224 630.841 554.382 631.285 556.505 632.863C561.718 636.738 562.649 643.702 558.37 648.681C555.901 651.553 554.187 652.012 550.49 652.465L348.949 652.477L291.693 652.463C280.795 652.519 264.997 653.116 254.644 651.994C245.277 645.602 246.077 633.162 257.879 630.869Z"/><path fill="#E3DEDA" d="M255.731 835.291C278.169 834.509 303.97 835.145 326.665 835.145L460.218 835.157L522.17 835.105C531.263 835.093 543.88 834.429 552.586 835.681C563.393 837.235 563.343 850.778 553.704 856.41C534.108 857.422 507.406 856.627 487.106 856.629L357.858 856.622L289.647 856.699C278.563 856.717 267.153 857.086 256.154 856.236C249.909 855.754 247.399 847.504 248.854 842.373C249.881 838.753 252.672 836.958 255.731 835.291Z"/><path fill="#E3DEDA" d="M255.76 767.301C276.94 766.337 304.108 767.114 325.812 767.117L460.466 767.14L522.211 767.082C531.002 767.066 544.882 766.285 553.052 767.642C562.307 769.178 564.056 782.611 553.889 788.099C548.089 788.983 530.742 788.607 524.13 788.598L466.759 788.598L314.557 788.569C306.349 788.57 260.163 789.279 255.162 787.789C252.799 787.096 250.816 785.477 249.664 783.3C246.143 776.521 249.488 770.563 255.76 767.301Z"/><path fill="#E3DEDA" d="M255.787 698.712C278.492 697.891 305.546 698.544 328.566 698.547L465.615 698.565L525.247 698.536C532.491 698.528 547.503 697.615 553.728 699.127C562.893 701.353 563.621 714.544 553.837 719.485C546.772 720.38 531.503 719.986 523.839 719.977L469.557 719.931L311.043 719.872C293.038 719.847 272.5 720.969 254.82 719.056C247.94 718.311 244.362 704.402 255.787 698.712Z"/><path fill="#2E7FE5" d="M762.943 279.721C765.923 270.132 770.487 267.461 780.17 267.399C818.897 267.146 857.652 267.348 896.383 267.297C907.803 267.282 913.867 267.519 920.04 278.478C911.638 278.363 903.947 278.638 903.101 289.147C902.399 297.875 902.664 306.696 902.662 315.456L902.678 360.51L902.675 425.547C902.67 458.755 900.11 488.948 917.919 518.647C902.067 511.799 892.561 503.334 881.752 490.1C881.22 516.547 894.665 550.463 913.206 569.449C920.139 576.549 926.481 581.059 934.566 586.508C920.573 586.963 910.3 586.942 896.423 583.982C809.658 565.478 762.944 480.777 762.491 397.323C762.356 372.574 762.383 347.747 762.392 322.986C762.349 313.862 761.753 286.584 762.943 279.721Z"/><defs><linearGradient id="gradient_0" gradientUnits="userSpaceOnUse" x1="626.26141" y1="1019.4697" x2="629.80298" y2="747.30701"><stop offset="0" stop-color="#B3B2B1"/><stop offset="1" stop-color="#D9D8D8"/></linearGradient></defs><path fill="url(#gradient_0)" d="M1077.02 750.665C1083.94 758.54 1089.61 766.621 1100.5 768.162L1100.53 849.322C1100.54 888.304 1106.21 923.834 1076.13 953.988C1065.75 964.432 1052.65 971.757 1038.32 975.132C1023.75 978.55 987.006 977.287 969.799 977.282L824.38 977.326L775.249 977.295C749.384 977.29 726.873 977.069 701.435 982.971C675.044 989.094 646.561 1001.6 627.869 1021.69C586.332 980.788 536.315 977.306 481.972 977.29L433.275 977.295L286.691 977.286C266.839 977.302 228.816 979.273 211.49 973.393C176.198 961.416 156.38 930.788 156.03 894.08C156.011 891.775 156.01 889.471 156.027 887.167C164.849 883.739 174.17 861.504 179.399 852.328C179.407 880.209 178.502 902.312 200.265 923.974C209.308 933.014 220.636 939.43 233.041 942.536C246.889 945.895 283.46 944.716 299.904 944.705L443.12 944.705C504.808 944.697 576.042 937.78 624.393 984.485C626.225 986.388 626.011 986.799 628.142 987.323C629.714 986.434 629.629 986.369 630.776 984.928C681.535 937.473 750.268 944.712 814.241 944.695L954.496 944.673C971.278 944.681 1008.28 945.934 1022.77 942.482C1035.03 939.503 1046.25 933.244 1055.23 924.375C1064.57 915.228 1071.19 903.672 1074.35 890.991C1077.88 876.834 1077.09 845.737 1077.08 829.928L1077.02 750.665Z"/><path fill="#E3DEDA" d="M1077.02 440.173C1084.78 447.446 1089.24 451.623 1100.49 449.816L1100.5 608.561L1100.49 659.786C1100.49 667.914 1100.78 678.598 1100.39 686.548C1094.67 677.714 1086.57 630.83 1084.17 617.974C1082.96 611.523 1082.3 601.302 1080.25 594.505C1079.61 592.407 1078.47 591.141 1077.02 589.509L1077.02 440.173Z"/><path fill="#D2B090" d="M1077.02 589.509C1078.47 591.141 1079.61 592.407 1080.25 594.505C1082.3 601.302 1082.96 611.523 1084.17 617.974C1086.57 630.83 1094.67 677.714 1100.39 686.548C1101.35 712.117 1100.44 742.153 1100.5 768.162C1089.61 766.621 1083.94 758.54 1077.02 750.665C1076.23 697.662 1076.86 642.615 1077.02 589.509Z"/><path fill="#A3A2A1" d="M1076.66 322.109C1098.56 353.178 1100.55 370.205 1100.54 406.75L1100.49 449.816C1089.24 451.623 1084.78 447.446 1077.02 440.173C1076.49 418.517 1077.21 396.251 1076.93 374.546C1076.77 361.919 1077.56 349.552 1075.67 337.006C1075.79 332.104 1076.27 327.016 1076.66 322.109Z"/><path fill="#E3DEDA" d="M1063.09 306.832C1067.65 310.786 1073.26 317.098 1076.66 322.109C1076.27 327.016 1075.79 332.104 1075.67 337.006C1074.32 329.894 1071.64 322.983 1068.22 316.635C1066.42 313.302 1064.45 310.349 1063.09 306.832Z"/><path fill="#E3DEDA" d="M709.488 767.517L903.979 767.571L962.64 767.498C973.374 767.466 988.905 767.01 999.099 767.955C1002.91 770.197 1006.05 772.807 1006.19 777.565C1006.69 794.885 1006.25 812.239 1006.39 829.578C1006.45 836.754 1006.68 844.879 1006.02 852.011C1005.46 858.118 999.929 860.385 994.536 860.802L804.81 860.846L741.143 860.87C729.729 860.871 718.247 860.986 706.84 860.722C703.746 860.65 699.582 860.398 697.313 858.18C694.656 855.581 693.951 851.831 693.785 848.243C694.191 829.473 693.701 810.425 693.823 791.68C693.868 784.663 692.338 773.328 698.899 769.298C702.189 767.278 705.789 767.57 709.488 767.517Z"/><path fill="#E3DEDA" d="M702.762 630.911C724.395 630.484 746.755 630.783 768.475 630.794L878.004 630.779L953.892 630.746C967.601 630.732 981.312 630.656 995.019 630.839C1000.77 630.915 1005.39 633.706 1006.35 639.706C1006.82 642.768 1006.07 645.895 1004.25 648.403C1002.35 650.98 1000.57 651.713 997.591 652.251C985.144 652.976 968.488 652.499 955.577 652.5L876.961 652.439L766.83 652.461C746.944 652.478 727.057 652.525 707.174 652.425C701.21 652.395 696.189 651.702 694.179 645.067C693.265 641.992 693.692 638.674 695.356 635.931C697.255 632.766 699.33 631.679 702.762 630.911Z"/><path fill="#E3DEDA" d="M701.021 698.731C724.271 697.922 751.161 698.546 774.628 698.544L912.774 698.573L969.837 698.526C977.959 698.509 991.517 697.721 998.935 699.106C1007.87 700.775 1009.81 714.574 999.563 719.44C990.491 720.659 964.696 719.839 954.304 719.867L854.528 719.971L753.148 719.964C740.223 719.977 710.843 720.789 699.681 719.265C691.2 712.837 691.756 704.048 701.021 698.731Z"/></g></svg>